<svg width="490" height="544" viewBox="0 0 490 544" fill="none" xmlns="http://www.w3.org/2000/svg">
<path d="M43.8841 280.393C64.1884 305.418 89.8883 315.141 102.562 345.547C111.25 366.389 107.174 391.065 113.593 412.859C122.391 442.732 151.297 462.8 180.111 462.908C208.925 463.016 236.392 445.242 253.49 419.991C259.098 411.71 263.958 402.399 271.818 396.69C283.077 388.513 297.68 389.564 311.16 388.256C344.396 385.032 375.892 364.712 394.451 334.521C394.451 334.521 442.595 272.673 408.514 184.194C398.607 158.476 382.549 134.858 360.404 120.842C338.26 106.826 299.726 106.493 276.926 119.201C252.685 132.712 236.568 162.325 209.998 168.83C194.597 172.599 178.696 167.7 163.187 164.495C141.432 159.999 119.256 157.206 97.2887 160.243C71.4338 163.818 45.3547 177.932 33.2942 209.666C29.0702 220.779 27.6506 232.971 29.3343 244.859C30.843 255.519 34.6588 269.022 43.8841 280.393Z" fill="#F5F5FF"/>
<path d="M243.684 97.6506C238.096 90.0119 229.389 85.8423 220.682 83.4929C208.668 80.2513 195.749 80.0019 184.096 84.5407C172.442 89.0795 162.221 98.7551 157.924 111.392C153.627 124.03 155.995 139.479 164.911 148.826C169.907 154.063 176.924 156.88 183.822 156.859C187.913 157.334 192.092 156.833 195.936 155.221C204.491 151.633 210.778 143.489 218.982 139.033C227.898 134.191 239.357 133.418 245.391 124.787C250.824 117.015 249.273 105.289 243.684 97.6506Z" fill="#F5F5FF"/>
<path d="M82.9471 368.359C82.0157 366.282 81.1493 364.179 80.583 361.955C78.7712 354.832 80.0878 346.707 76.5742 340.382C72.1621 332.438 61.2941 330.988 53.9007 335.612C46.5073 340.237 42.2793 349.284 40.4765 358.357C39.366 363.945 39.0428 369.897 40.8006 375.283C42.8456 381.547 47.4967 386.415 52.5681 390.116C58.2067 394.231 64.7917 397.252 71.5769 397.001C74.5983 396.89 77.6437 396.017 80.3309 394.489C82.4499 393.487 84.3307 391.938 85.6253 389.93C86.5658 388.716 87.3591 387.37 87.9394 385.884C90.3495 379.71 88.1755 371.584 82.9471 368.359Z" fill="#F5F5FF"/>
<path d="M350.294 367.83H138.456C136.468 367.83 134.841 366.059 134.841 363.895V215.913C134.841 213.748 136.468 211.977 138.456 211.977H350.294C352.282 211.977 353.908 213.748 353.908 215.913V363.895C353.908 366.059 352.282 367.83 350.294 367.83Z" fill="#7B70EE"/>
<path d="M348.486 223.311H140.264V352.716H348.486V223.311Z" fill="#D5CBFB"/>
<path d="M245.684 217.179C245.684 217.967 245.098 218.604 244.375 218.604C243.651 218.604 243.066 217.966 243.066 217.179C243.066 216.392 243.652 215.753 244.375 215.753C245.098 215.755 245.684 216.392 245.684 217.179Z" fill="#D5CBFB"/>
<path d="M383.393 418.683L356.484 372.058C354.966 369.426 352.312 367.829 349.457 367.829H239.685H233.612H139.293C136.439 367.829 133.785 369.426 132.266 372.058L105.357 418.683C104.596 420.003 104.325 421.572 104.563 423.087H384.186C384.424 421.573 384.154 420.003 383.393 418.683Z" fill="#D5CBFB"/>
<path d="M104.563 423.088C104.612 423.401 104.675 423.711 104.768 424.016L105.192 425.402C105.979 427.969 108.185 429.7 110.67 429.7H233.611H239.684H378.078C380.564 429.7 382.771 427.968 383.556 425.402L383.98 424.016C384.073 423.711 384.136 423.4 384.185 423.088H104.563Z" fill="#7B70EE"/>
<path d="M149.418 390.839L150.728 387.701H144.244L142.857 390.839H149.418Z" fill="#7B70EE"/>
<path d="M160.84 381.905L161.483 380.268L162.073 378.766H155.799L154.488 381.905H160.84Z" fill="#7B70EE"/>
<path d="M152.068 387.701L150.758 390.839H157.333L158.565 387.701H152.068Z" fill="#7B70EE"/>
<path d="M151.283 386.372L152.593 383.233H146.22L144.832 386.372H151.283Z" fill="#7B70EE"/>
<path d="M283.299 378.766L284.024 381.905H289.6L288.797 378.766H283.299Z" fill="#7B70EE"/>
<path d="M183.257 387.701L182.377 390.839H189.006L189.848 387.701H183.257Z" fill="#7B70EE"/>
<path d="M175.505 387.701L174.467 390.839H181.101L181.982 387.701H175.505Z" fill="#7B70EE"/>
<path d="M167.716 387.701L166.562 390.839H173.171L174.208 387.701H167.716Z" fill="#7B70EE"/>
<path d="M159.892 387.701L158.66 390.839H165.247L166.402 387.701H159.892Z" fill="#7B70EE"/>
<path d="M290.064 378.766L290.866 381.905H296.076L295.232 378.766H290.064Z" fill="#7B70EE"/>
<path d="M205.678 383.233L204.952 386.372H210.195L210.842 383.233H205.678Z" fill="#7B70EE"/>
<path d="M262.555 378.766L263.045 381.905H269.095L268.526 378.766H262.555Z" fill="#7B70EE"/>
<path d="M204.726 381.905L205.452 378.766H199.953L199.15 381.905H204.726Z" fill="#7B70EE"/>
<path d="M197.883 381.905L198.687 378.766H193.518L192.675 381.905H197.883Z" fill="#7B70EE"/>
<path d="M211.116 381.905L211.764 378.766H206.709L205.985 381.905H211.116Z" fill="#7B70EE"/>
<path d="M296.504 378.766L297.346 381.905H303.865L302.983 378.766H296.504Z" fill="#7B70EE"/>
<path d="M178.457 378.766L177.42 381.905H183.61L184.065 380.286L184.491 378.766H178.457Z" fill="#7B70EE"/>
<path d="M176.123 381.905L177.161 378.766H171.002L169.848 381.905H176.123Z" fill="#7B70EE"/>
<path d="M163.4 378.766L162.168 381.905H168.534L169.134 380.272L169.687 378.766H163.4Z" fill="#7B70EE"/>
<path d="M276.987 378.766L277.633 381.905H282.765L282.04 378.766H276.987Z" fill="#7B70EE"/>
<path d="M269.769 378.766L270.339 381.905H276.382L275.736 378.766H269.769Z" fill="#7B70EE"/>
<path d="M191.403 381.905L192.247 378.766H185.767L184.885 381.905H191.403Z" fill="#7B70EE"/>
<path d="M199.027 377.438L199.775 374.516H194.659L193.873 377.438H199.027Z" fill="#7B70EE"/>
<path d="M192.603 377.438L193.387 374.516H186.961L186.14 377.438H192.603Z" fill="#7B70EE"/>
<path d="M255.431 378.766L255.767 381.905H261.808L261.318 378.766H255.431Z" fill="#7B70EE"/>
<path d="M219.221 377.438L219.751 374.516H213.892L213.289 377.438H219.221Z" fill="#7B70EE"/>
<path d="M212.038 377.438L212.641 374.516H207.692L207.017 377.438H212.038Z" fill="#7B70EE"/>
<path d="M205.759 377.438L206.433 374.516H201.042L200.293 377.438H205.759Z" fill="#7B70EE"/>
<path d="M326.678 378.766L327.909 381.905H334.262L332.952 378.766H326.678Z" fill="#7B70EE"/>
<path d="M162.595 377.438L163.742 374.516H157.573L156.353 377.438H162.595Z" fill="#7B70EE"/>
<path d="M170.176 377.438L171.251 374.516H165.069L163.922 377.438H170.176Z" fill="#7B70EE"/>
<path d="M184.864 377.438L185.685 374.516H179.862L178.896 377.438H184.864Z" fill="#7B70EE"/>
<path d="M334.292 378.766L335.603 381.905H341.942L340.553 378.766H334.292Z" fill="#7B70EE"/>
<path d="M177.6 377.438L178.565 374.516H172.565L171.491 377.438H177.6Z" fill="#7B70EE"/>
<path d="M304.258 378.766L305.141 381.905H311.331L310.293 378.766H304.258Z" fill="#7B70EE"/>
<path d="M218.603 387.701L218.034 390.839H224.305L224.797 387.701H218.603Z" fill="#7B70EE"/>
<path d="M191.12 387.701L190.278 390.839H195.596L196.4 387.701H191.12Z" fill="#7B70EE"/>
<path d="M211.172 387.701L210.525 390.839H216.79L217.359 387.701H211.172Z" fill="#7B70EE"/>
<path d="M197.667 387.701L196.864 390.839H202.661L203.387 387.701H197.667Z" fill="#7B70EE"/>
<path d="M204.645 387.701L203.92 390.839H209.273L209.921 387.701H204.645Z" fill="#7B70EE"/>
<path d="M227.433 378.766L226.942 381.905H232.983L233.319 378.766H227.433Z" fill="#7B70EE"/>
<path d="M226.403 377.438L226.861 374.516H220.995L220.465 377.438H226.403Z" fill="#7B70EE"/>
<path d="M219.413 383.233L218.844 386.372H225.005L225.496 383.233H219.413Z" fill="#7B70EE"/>
<path d="M319.062 378.766L320.217 381.905H326.583L325.35 378.766H319.062Z" fill="#7B70EE"/>
<path d="M232.506 386.372L232.841 383.233H226.734L226.242 386.372H232.506Z" fill="#7B70EE"/>
<path d="M311.589 378.766L312.627 381.905H318.902L317.748 378.766H311.589Z" fill="#7B70EE"/>
<path d="M153.148 381.905L154.458 378.766H148.196L146.808 381.905H153.148Z" fill="#7B70EE"/>
<path d="M291.887 390.839L291.083 387.701H285.364L286.088 390.839H291.887Z" fill="#7B70EE"/>
<path d="M198.81 383.233L198.007 386.372H203.694L204.419 383.233H198.81Z" fill="#7B70EE"/>
<path d="M302.61 377.438L301.789 374.516H295.363L296.147 377.438H302.61Z" fill="#7B70EE"/>
<path d="M317.258 377.438L316.185 374.516H310.184L311.151 377.438H317.258Z" fill="#7B70EE"/>
<path d="M309.854 377.438L308.888 374.516H303.066L303.886 377.438H309.854Z" fill="#7B70EE"/>
<path d="M275.461 377.438L274.859 374.516H268.999L269.528 377.438H275.461Z" fill="#7B70EE"/>
<path d="M268.286 377.438L267.755 374.516H261.89L262.347 377.438H268.286Z" fill="#7B70EE"/>
<path d="M324.829 377.438L323.681 374.516H317.5L318.574 377.438H324.829Z" fill="#7B70EE"/>
<path d="M288.457 377.438L287.709 374.516H282.316L282.992 377.438H288.457Z" fill="#7B70EE"/>
<path d="M281.733 377.438L281.058 374.516H276.109L276.712 377.438H281.733Z" fill="#7B70EE"/>
<path d="M284.83 390.839L284.105 387.701H278.83L279.476 390.839H284.83Z" fill="#7B70EE"/>
<path d="M330.09 390.839L328.858 387.701H322.349L323.503 390.839H330.09Z" fill="#7B70EE"/>
<path d="M314.284 390.839L313.246 387.701H306.768L307.649 390.839H314.284Z" fill="#7B70EE"/>
<path d="M345.894 390.839L344.504 387.701H338.022L339.333 390.839H345.894Z" fill="#7B70EE"/>
<path d="M337.993 390.839L336.682 387.701H330.185L331.417 390.839H337.993Z" fill="#7B70EE"/>
<path d="M322.188 390.839L321.033 387.701H314.543L315.58 390.839H322.188Z" fill="#7B70EE"/>
<path d="M278.225 390.839L277.579 387.701H271.391L271.96 390.839H278.225Z" fill="#7B70EE"/>
<path d="M332.397 377.438L331.178 374.516H325.008L326.155 377.438H332.397Z" fill="#7B70EE"/>
<path d="M343.296 381.905H349.146L347.516 378.766H341.908L343.296 381.905Z" fill="#7B70EE"/>
<path d="M298.474 390.839L297.63 387.701H292.35L293.153 390.839H298.474Z" fill="#7B70EE"/>
<path d="M339.966 377.438L338.672 374.516H332.517L333.737 377.438H339.966Z" fill="#7B70EE"/>
<path d="M306.373 390.839L305.492 387.701H298.902L299.744 390.839H306.373Z" fill="#7B70EE"/>
<path d="M346.828 377.438L345.31 374.516H340.027L341.321 377.438H346.828Z" fill="#7B70EE"/>
<path d="M294.876 377.438L294.093 374.516H288.975L289.724 377.438H294.876Z" fill="#7B70EE"/>
<path d="M255.493 390.839L255.158 387.701H248.833L248.95 390.839H255.493Z" fill="#7B70EE"/>
<path d="M161.646 383.233L161.003 384.871L160.414 386.372H166.891L168.044 383.233H161.646Z" fill="#7B70EE"/>
<path d="M262.508 386.372L262.017 383.233H255.908L256.244 386.372H262.508Z" fill="#7B70EE"/>
<path d="M159.086 386.372L160.32 383.233H153.933L153.248 384.875L152.623 386.372H159.086Z" fill="#7B70EE"/>
<path d="M213.015 378.766L212.368 381.905H218.411L218.98 378.766H213.015Z" fill="#7B70EE"/>
<path d="M220.225 378.766L219.654 381.905H225.704L226.195 378.766H220.225Z" fill="#7B70EE"/>
<path d="M184.512 383.233L183.631 386.372H190.205L191.047 383.233H184.512Z" fill="#7B70EE"/>
<path d="M169.359 383.233L168.204 386.372H174.646L175.684 383.233H169.359Z" fill="#7B70EE"/>
<path d="M192.319 383.233L191.476 386.372H196.74L197.543 383.233H192.319Z" fill="#7B70EE"/>
<path d="M248.669 383.233L248.785 386.372H255.016L254.679 383.233H248.669Z" fill="#7B70EE"/>
<path d="M176.982 383.233L175.944 386.372H182.355L183.236 383.233H176.982Z" fill="#7B70EE"/>
<path d="M254.061 377.438L253.748 374.516H248.346L248.454 377.438H254.061Z" fill="#7B70EE"/>
<path d="M270.717 390.839L270.148 387.701H263.954L264.444 390.839H270.717Z" fill="#7B70EE"/>
<path d="M241.626 374.516L241.517 377.438H247.232L247.124 374.516H241.626Z" fill="#7B70EE"/>
<path d="M241.468 378.766L241.352 381.905H247.397L247.281 378.766H241.468Z" fill="#7B70EE"/>
<path d="M254.538 381.905L254.202 378.766H248.503L248.619 381.905H254.538Z" fill="#7B70EE"/>
<path d="M261.109 377.438L260.652 374.516H254.977L255.29 377.438H261.109Z" fill="#7B70EE"/>
<path d="M241.303 383.233L241.186 386.372H247.563L247.447 383.233H241.303Z" fill="#7B70EE"/>
<path d="M241.138 387.701L241.021 390.839H247.728L247.612 387.701H241.138Z" fill="#7B70EE"/>
<path d="M240.297 377.438L240.405 374.516H235.001L234.689 377.438H240.297Z" fill="#7B70EE"/>
<path d="M227.641 377.438H233.461L233.773 374.516H228.099L227.641 377.438Z" fill="#7B70EE"/>
<path d="M269.906 386.372L269.336 383.233H263.253L263.746 386.372H269.906Z" fill="#7B70EE"/>
<path d="M212.094 383.233L211.446 386.372H217.6L218.17 383.233H212.094Z" fill="#7B70EE"/>
<path d="M134.276 392.167L132.85 394.913H139.7L140.915 392.167H134.276Z" fill="#7B70EE"/>
<path d="M297.274 386.372L296.432 383.233H291.206L292.011 386.372H297.274Z" fill="#7B70EE"/>
<path d="M293.493 392.167L294.197 394.913H299.567L298.83 392.167H293.493Z" fill="#7B70EE"/>
<path d="M283.798 386.372L283.073 383.233H277.908L278.554 386.372H283.798Z" fill="#7B70EE"/>
<path d="M239.801 390.839L239.917 387.701H233.593L233.258 390.839H239.801Z" fill="#7B70EE"/>
<path d="M316.019 392.167L316.926 394.913H323.685L322.677 392.167H316.019Z" fill="#7B70EE"/>
<path d="M336.128 386.372L334.817 383.233H328.431L329.663 386.372H336.128Z" fill="#7B70EE"/>
<path d="M323.991 392.167L325 394.913H331.69L330.612 392.167H323.991Z" fill="#7B70EE"/>
<path d="M226.034 387.701L225.543 390.839H232.029L232.364 387.701H226.034Z" fill="#7B70EE"/>
<path d="M136.594 387.701L134.965 390.839H141.502L142.891 387.701H136.594Z" fill="#7B70EE"/>
<path d="M256.862 392.167L257.157 394.913H263.845L263.415 392.167H256.862Z" fill="#7B70EE"/>
<path d="M158.139 392.167L157.06 394.913H163.749L164.759 392.167H158.139Z" fill="#7B70EE"/>
<path d="M239.752 392.167H233.115L232.822 394.913H239.65L239.752 392.167Z" fill="#7B70EE"/>
<path d="M328.335 386.372L327.105 383.233H320.706L321.859 386.372H328.335Z" fill="#7B70EE"/>
<path d="M142.27 392.167L141.054 394.913H147.717L148.864 392.167H142.27Z" fill="#7B70EE"/>
<path d="M270.58 383.233L271.15 386.372H277.304L276.658 383.233H270.58Z" fill="#7B70EE"/>
<path d="M300.1 392.167L300.838 394.913H307.518L306.745 392.167H300.1Z" fill="#7B70EE"/>
<path d="M272.202 392.167L272.699 394.913H279.066L278.5 392.167H272.202Z" fill="#7B70EE"/>
<path d="M305.119 386.372L304.237 383.233H297.703L298.545 386.372H305.119Z" fill="#7B70EE"/>
<path d="M312.807 386.372L311.769 383.233H305.514L306.395 386.372H312.807Z" fill="#7B70EE"/>
<path d="M264.653 392.167L265.082 394.913H271.455L270.958 392.167H264.653Z" fill="#7B70EE"/>
<path d="M308.022 392.167L308.794 394.913H315.63L314.722 392.167H308.022Z" fill="#7B70EE"/>
<path d="M141.233 378.766L139.603 381.905H145.454L146.843 378.766H141.233Z" fill="#7B70EE"/>
<path d="M339.887 392.167L341.033 394.913H347.695L346.48 392.167H339.887Z" fill="#7B70EE"/>
<path d="M143.439 374.516L141.922 377.438H147.43L148.722 374.516H143.439Z" fill="#7B70EE"/>
<path d="M320.545 386.372L319.391 383.233H313.065L314.104 386.372H320.545Z" fill="#7B70EE"/>
<path d="M223.668 394.913L224.097 392.167H166.074L165.063 394.913H223.668Z" fill="#7B70EE"/>
<path d="M279.751 392.167L280.316 394.913H285.772L285.137 392.167H279.751Z" fill="#7B70EE"/>
<path d="M234.212 381.905H240.132L240.248 378.766H234.547L234.212 381.905Z" fill="#7B70EE"/>
<path d="M352.155 387.701H345.859L349.05 394.913H355.9L352.155 387.701Z" fill="#7B70EE"/>
<path d="M345.272 386.372H351.466L349.835 383.233H343.884L345.272 386.372Z" fill="#7B70EE"/>
<path d="M343.918 386.372L342.529 383.233H336.157L337.468 386.372H343.918Z" fill="#7B70EE"/>
<path d="M231.594 394.913L231.887 392.167H225.335L224.906 394.913H231.594Z" fill="#7B70EE"/>
<path d="M240.973 392.167L240.871 394.913H255.929L255.634 392.167H240.973Z" fill="#7B70EE"/>
<path d="M331.939 392.167L333.017 394.913H339.694L338.547 392.167H331.939Z" fill="#7B70EE"/>
<path d="M290.744 386.372L289.94 383.233H284.331L285.056 386.372H290.744Z" fill="#7B70EE"/>
<path d="M286.395 392.167L287.03 394.913H292.93L292.227 392.167H286.395Z" fill="#7B70EE"/>
<path d="M138.913 383.233L137.284 386.372H143.478L144.867 383.233H138.913Z" fill="#7B70EE"/>
<path d="M155.012 377.438L156.233 374.516H150.077L148.785 377.438H155.012Z" fill="#7B70EE"/>
<path d="M150.203 392.167L149.057 394.913H155.733L156.811 392.167H150.203Z" fill="#7B70EE"/>
<path d="M239.966 386.372L240.083 383.233H234.07L233.735 386.372H239.966Z" fill="#7B70EE"/>
<path d="M262.716 387.701H256.386L256.721 390.839H263.207L262.716 387.701Z" fill="#7B70EE"/>
<path d="M282.6 418.305H206.15C205.825 418.305 205.528 418.142 205.335 417.858C205.142 417.573 205.087 417.216 205.182 416.877L210.042 399.681C210.174 399.214 210.563 398.903 211.01 398.903H277.741C278.188 398.903 278.578 399.215 278.71 399.681L283.57 416.877C283.666 417.216 283.61 417.573 283.417 417.858C283.223 418.142 282.925 418.305 282.6 418.305ZM211.009 399.886C210.96 399.886 210.919 399.92 210.904 399.971L206.045 417.168C206.031 417.215 206.046 417.252 206.061 417.274C206.076 417.296 206.103 417.322 206.149 417.322H282.6C282.646 417.322 282.673 417.296 282.688 417.274C282.703 417.252 282.718 417.215 282.705 417.168L277.845 399.97C277.831 399.921 277.788 399.886 277.74 399.886H211.009Z" fill="#7B70EE"/>
<path d="M281.501 243.141L198.455 257.401L278.303 300.896L361.006 287.505L281.501 243.141Z" fill="#1C1C84"/>
<path d="M198.455 257.401V259.47L278.363 304.934L361.006 289.486V287.505L278.303 300.896L198.455 257.401Z" fill="#2525AD"/>
<path d="M229.344 306.336L228.071 315.528C228.071 315.528 262.172 345.337 310.255 330.68L310.991 323.498C268.49 331.24 241.735 316.24 229.344 306.336Z" fill="#2525AD"/>
<path d="M330.589 354.737C326.138 350.894 322.986 345.226 321.484 339.262C321.373 338.82 320.831 338.98 320.768 339.359C320.667 339.212 320.464 339.191 320.301 339.284C320.223 338.977 319.764 338.836 319.587 339.208C316.536 345.648 318.893 352.923 320.935 359.294C321.095 359.795 321.604 359.525 321.443 359.023C319.846 354.036 318.135 348.453 319.107 343.2C318.565 349.842 320.598 356.644 324.322 361.915C324.591 362.295 325.008 361.839 324.738 361.455C321.357 356.67 319.61 350.598 319.791 344.567C319.895 346.942 320.233 349.311 320.931 351.552C322.001 354.984 323.788 358.26 325.578 361.299C325.841 361.747 326.257 361.286 325.993 360.84C324.274 357.918 322.79 354.78 321.716 351.501C321.256 350.096 320.954 348.623 320.761 347.13C321.789 351.96 323.932 356.502 327.013 360.189C327.337 360.577 327.766 360.233 327.438 359.84C324.063 355.8 322.034 350.627 321.196 345.29C322.435 350.288 324.72 355.016 327.738 359.076C328.043 359.487 328.361 359.041 328.053 358.626C325.107 354.663 323.159 350.028 321.943 345.152C323.581 350.182 325.708 355.034 329.465 358.611C329.833 358.962 330.235 358.556 329.868 358.206C327.288 355.749 325.587 352.43 324.201 349.101C325.705 352.012 327.514 354.731 329.613 357.19C329.945 357.579 330.225 356.96 329.897 356.575C328.05 354.413 326.634 352.018 325.261 349.486C326.675 351.548 328.317 353.425 330.178 355.032C330.558 355.362 330.972 355.068 330.589 354.737Z" fill="#F0C64B"/>
<path d="M322.767 285.132C321.032 282.875 318.69 281.391 316.291 280.125C311.52 277.606 306.22 276.512 301.049 275.446C293.74 273.941 286.262 272.547 280.184 267.532C279.948 267.337 279.72 267.435 279.584 267.633C279.572 267.645 279.564 267.661 279.554 267.674C279.55 267.681 279.545 267.686 279.541 267.693C279.395 267.889 279.355 268.171 279.572 268.397C284.026 273.033 289.981 275.328 295.842 276.943C301.766 278.576 307.812 279.693 313.482 282.256C313.658 282.336 313.834 282.415 314.01 282.495C314.044 282.51 314.231 282.604 314.233 282.603C314.523 282.756 314.81 282.914 315.099 283.07C316.161 283.643 317.194 284.236 318.166 284.98C319.33 285.873 320.409 286.965 321.157 288.293C321.976 289.745 322.26 291.373 322.23 293.061C322.199 294.818 321.9 296.565 321.637 298.295C321.366 300.087 321.122 301.883 320.869 303.677C320.346 307.387 319.859 311.099 319.49 314.831C318.681 323.046 318.46 331.425 319.817 339.589C319.918 340.195 320.851 340.062 320.809 339.443C320.282 331.695 320.862 323.927 321.861 316.251C322.358 312.431 322.96 308.626 323.573 304.826C324.149 301.259 324.909 297.663 325.178 294.049C325.422 290.772 324.725 287.68 322.767 285.132Z" fill="#F0C64B"/>
<path d="M319.44 340.173C319.526 340.127 319.613 340.086 319.702 340.045C319.755 340.022 319.753 340.024 319.694 340.047C319.72 340.038 319.745 340.027 319.771 340.018C319.81 340.004 319.849 339.99 319.888 339.977C320.077 339.914 320.27 339.868 320.466 339.837C320.513 339.83 320.561 339.821 320.608 339.818C320.476 339.825 320.63 339.818 320.656 339.815C320.751 339.81 320.847 339.808 320.942 339.81C321.037 339.812 321.132 339.818 321.227 339.827C321.274 339.833 321.322 339.838 321.369 339.845C321.396 339.849 321.423 339.853 321.45 339.858C321.384 339.845 321.38 339.844 321.437 339.856C321.576 339.884 321.698 339.892 321.829 339.817C321.936 339.754 322.04 339.628 322.072 339.497C322.136 339.239 322.021 338.864 321.742 338.807C320.793 338.614 319.835 338.736 318.963 339.201C318.725 339.329 318.62 339.696 318.756 339.946C318.899 340.211 319.186 340.309 319.44 340.173Z" fill="#D8A32B"/>
<path d="M319.339 339.099C319.425 339.053 319.512 339.012 319.6 338.971C319.653 338.948 319.651 338.95 319.592 338.973C319.618 338.964 319.643 338.954 319.669 338.944C319.708 338.93 319.748 338.916 319.787 338.903C319.976 338.84 320.169 338.793 320.365 338.763C320.412 338.756 320.46 338.747 320.507 338.744C320.375 338.751 320.529 338.744 320.555 338.741C320.65 338.736 320.746 338.734 320.841 338.736C320.936 338.738 321.032 338.744 321.126 338.755C321.174 338.76 321.221 338.765 321.268 338.772C321.295 338.776 321.322 338.781 321.349 338.785C321.283 338.772 321.278 338.771 321.336 338.783C321.475 338.811 321.597 338.819 321.727 338.744C321.834 338.682 321.94 338.554 321.971 338.425C322.035 338.166 321.92 337.789 321.641 337.734C320.691 337.541 319.734 337.663 318.862 338.128C318.625 338.256 318.519 338.624 318.655 338.873C318.798 339.137 319.084 339.235 319.339 339.099Z" fill="#D8A32B"/>
<path d="M313.489 301.868L313.901 298.291L278.363 304.934L233.626 279.48L232.667 285.495L277.47 310.051L313.489 301.868Z" fill="#0C0C5B"/>
<path d="M277.47 310.051L232.666 285.495L229.344 306.336C241.735 316.24 268.49 331.24 310.991 323.499L313.488 301.868L277.47 310.051Z" fill="#1C1C84"/>
<path d="M223.158 338.328C225.141 344.143 220.88 351.228 213.641 354.154C206.403 357.08 202.271 353.391 199.376 348.048C195.141 340.234 199.223 336.019 206.461 333.094C213.701 330.169 221.175 332.512 223.158 338.328Z" fill="#FFF6DC"/>
<path d="M150.875 274.28C150.875 274.28 168.839 294.42 183.559 330.568C183.559 330.568 190.54 350.191 195.12 355.097C195.12 355.097 191.413 350.55 197.074 343.289C201.232 337.956 207.296 334.688 213.716 334.441C217.302 334.303 221.05 335.12 223.183 338.403C223.183 338.403 199.226 307.678 183.574 281.167C177.32 270.575 174.359 261.825 173.06 255.135C173.06 255.135 171.88 253.624 169.53 252.36C160.888 247.714 150.708 253.968 149.201 264.332C149.06 265.299 148.972 266.33 148.949 267.425C148.949 267.425 148.825 272.019 150.875 274.28Z" fill="white"/>
<path d="M195.12 355.098C195.12 355.098 202.983 365.426 220.789 353.033C220.789 353.033 231.81 345.029 226.308 331.085C226.308 331.085 214.879 321.809 205.867 310.051C196.855 298.293 185.708 282.285 176.458 261.111L174.1 259.558C174.1 259.558 175.8 269.598 186.808 286.517C197.816 303.437 218.123 331.764 218.123 331.764L221.228 335.838C223.011 338.176 223.623 341.388 222.639 344.232C221.236 348.282 217.121 353.079 205.631 353.807L198.455 341.678C198.455 341.678 191.488 347.961 195.12 355.098Z" fill="#F4E7BD"/>
<path d="M212.512 317.914C212.512 317.914 191.875 294.486 177.409 257.401C177.409 257.401 174.8 252.886 173.14 250.803C173.14 250.803 185.716 293.124 212.512 317.914Z" fill="white"/>
<path d="M174.557 311.115C178.899 302.59 188.281 296.951 197.212 297.439C200.39 297.612 200.381 293.309 197.212 293.136C186.62 292.557 176.119 298.313 170.983 308.401C170.983 308.401 173.014 314.147 174.557 311.115Z" fill="#F0C64B"/>
<path d="M142.587 326.787H102.085C96.7155 326.787 92.3224 322.004 92.3224 316.159V293.194C92.3224 287.348 96.7155 282.566 102.085 282.566H142.587C147.956 282.566 152.349 287.348 152.349 293.194V316.159C152.349 322.004 147.956 326.787 142.587 326.787Z" fill="#2525AD"/>
<path d="M115.893 304.677V296.579L122.336 300.627L128.778 304.677L122.336 308.727L115.893 312.775V304.677Z" fill="#D5CBFB"/>
<path d="M110.609 229.257C110.609 215.755 100.555 204.81 88.1545 204.81C75.7538 204.81 65.7001 215.755 65.7001 229.257C65.7001 239.042 70.9826 247.481 78.6111 251.386V259.183H97.6989V251.386C105.326 247.481 110.609 239.042 110.609 229.257Z" fill="white"/>
<path d="M98.3132 263.212H77.9958C76.9773 263.212 76.145 262.306 76.145 261.197C76.145 260.088 76.9773 259.182 77.9958 259.182H98.3142C99.3317 259.182 100.165 260.088 100.165 261.197C100.164 262.306 99.3317 263.212 98.3132 263.212Z" fill="#F0C64B"/>
<path d="M88.1545 274.647C84.0546 274.647 80.7311 271.029 80.7311 266.565V265.228H95.5789V266.565C95.5779 271.029 92.2544 274.647 88.1545 274.647Z" fill="#F0C64B"/>
<path d="M98.3132 267.242H77.9958C76.9773 267.242 76.145 266.335 76.145 265.227C76.145 264.12 76.9773 263.212 77.9958 263.212H98.3142C99.3317 263.212 100.165 264.118 100.165 265.227C100.164 266.336 99.3317 267.242 98.3132 267.242Z" fill="#D8A32B"/>
<path d="M90.1965 259.183H89.144V225.221C89.144 224.627 88.6998 224.144 88.1545 224.144C87.6083 224.144 87.1641 224.627 87.1641 225.221V259.183H86.1116V225.221C86.1116 223.995 87.028 222.998 88.1545 222.998C89.281 222.998 90.1965 223.995 90.1965 225.221V259.183Z" fill="#F0C64B"/>
<path d="M52.8612 220.922L52.2449 224.42L61.6303 226.379C61.7563 225.185 61.9484 224.014 62.2025 222.868L52.8612 220.922Z" fill="#7B70EE"/>
<path d="M60.2956 204.81L58.3167 207.652L65.8022 213.821C66.4015 212.825 67.0558 211.869 67.7601 210.963L60.2956 204.81Z" fill="#7B70EE"/>
<path d="M73.4167 193.928L70.4934 195.53L74.7013 204.612C75.6407 204.014 76.6142 203.474 77.6216 203.002L73.4167 193.928Z" fill="#7B70EE"/>
<path d="M124.064 224.42L123.448 220.922L114.105 222.868C114.36 224.013 114.553 225.185 114.678 226.379L124.064 224.42Z" fill="#7B70EE"/>
<path d="M117.991 207.652L116.012 204.81L108.548 210.963C109.252 211.87 109.906 212.825 110.506 213.821L117.991 207.652Z" fill="#7B70EE"/>
<path d="M105.816 195.53L102.892 193.928L98.6864 203.003C99.6939 203.475 100.667 204.015 101.607 204.613L105.816 195.53Z" fill="#7B70EE"/>
<path d="M89.8273 200.712L89.7463 190.373L86.4717 190.406L86.5538 200.706C87.084 200.672 87.6163 200.649 88.1535 200.649C88.7168 200.65 89.274 200.675 89.8273 200.712Z" fill="#7B70EE"/>
<path d="M419.838 415.97H324.944V436.34H419.838V415.97Z" fill="#F0C64B"/>
<path d="M334.106 415.97H330.284V436.34H334.106V415.97Z" fill="#D8A32B"/>
<path d="M339.844 415.97H336.021V436.34H339.844V415.97Z" fill="#D8A32B"/>
<path d="M408.761 415.97H404.938V436.34H408.761V415.97Z" fill="#D8A32B"/>
<path d="M414.496 415.97H410.674V436.34H414.496V415.97Z" fill="#D8A32B"/>
<path d="M428.968 404.619V401.485C428.968 397.032 425.639 393.409 421.55 393.409H336.974V412.697H421.55C425.639 412.697 428.968 409.073 428.968 404.619Z" fill="white"/>
<path d="M421.549 390.015H336.42V391.712V393.409H421.549C425.639 393.409 428.967 397.033 428.967 401.485V404.619C428.967 409.073 425.638 412.696 421.549 412.696H336.42V414.393V416.09H421.549C427.358 416.09 432.084 410.944 432.084 404.619V401.485C432.084 395.16 427.358 390.015 421.549 390.015Z" fill="#2525AD"/>
<path d="M423.205 397.727H336.973V399.27H423.205V397.727Z" fill="#F5F5FF"/>
<path d="M423.205 402.375H336.973V403.919H423.205V402.375Z" fill="#F5F5FF"/>
<path d="M423.205 407.024H336.973V408.568H423.205V407.024Z" fill="#F5F5FF"/>
<path d="M329.724 379.807V376.984C329.724 372.974 332.721 369.712 336.404 369.712H412.559V387.079H336.404C332.722 387.079 329.724 383.817 329.724 379.807Z" fill="white"/>
<path d="M336.404 366.655H413.058V368.183V369.712H336.404C332.721 369.712 329.724 372.974 329.724 376.984V379.806C329.724 383.817 332.721 387.079 336.404 387.079H413.058V388.607V390.136H336.404C331.173 390.136 326.917 385.502 326.917 379.806V376.984C326.917 371.289 331.173 366.655 336.404 366.655Z" fill="#F0C64B"/>
<path d="M334.912 374.989H412.559V373.599H334.912V374.989Z" fill="#F5F5FF"/>
<path d="M334.912 379.175H412.559V377.785H334.912V379.175Z" fill="#F5F5FF"/>
<path d="M334.912 383.361H412.559V381.971H334.912V383.361Z" fill="#F5F5FF"/>
<path d="M176.71 150.077C180.295 150.077 183.2 153.145 183.2 156.928V157.97C184.506 161.968 185.3 167.173 185.3 172.879C185.3 178.586 184.505 183.789 183.2 187.789V188.831C183.2 192.614 180.295 195.681 176.71 195.681C171.966 195.681 168.12 185.473 168.12 172.879C168.119 160.286 171.966 150.077 176.71 150.077Z" fill="#F0C64B"/>
<path d="M171.039 173.169C171.039 180.872 171.587 187.118 172.262 187.118C172.939 187.118 173.486 180.873 173.486 173.169C173.486 165.466 172.938 159.22 172.262 159.22C171.587 159.221 171.039 165.466 171.039 173.169Z" fill="#D8A32B"/>
<path d="M192.288 162.547V163.461V182.878V183.792C191.845 189.049 187.404 193.921 181.452 195.681V182.878V163.461V150.658C187.404 152.418 191.845 157.29 192.288 162.547Z" fill="#7B70EE"/>
<path d="M181.452 198.121C182.421 198.121 183.213 197.285 183.213 196.262V150.077C183.213 149.055 182.42 148.217 181.452 148.217C180.482 148.217 179.69 149.054 179.69 150.077V196.262C179.689 197.285 180.482 198.121 181.452 198.121Z" fill="#2525AD"/>
<path d="M142.996 150.077C139.411 150.077 136.506 153.145 136.506 156.928V157.97C135.2 161.968 134.406 167.173 134.406 172.879C134.406 178.586 135.201 183.789 136.506 187.789V188.831C136.506 192.614 139.411 195.681 142.996 195.681C147.74 195.681 151.586 185.473 151.586 172.879C151.586 160.286 147.74 150.077 142.996 150.077Z" fill="#F0C64B"/>
<path d="M148.666 173.169C148.666 180.872 148.118 187.118 147.443 187.118C146.768 187.118 146.219 180.873 146.219 173.169C146.219 165.466 146.768 159.22 147.443 159.22C148.118 159.221 148.666 165.466 148.666 173.169Z" fill="#D8A32B"/>
<path d="M127.418 162.547V163.461V182.878V183.792C127.86 189.049 132.301 193.921 138.254 195.681V182.878V163.461V150.658C132.301 152.418 127.86 157.29 127.418 162.547Z" fill="#7B70EE"/>
<path d="M138.255 198.121C137.285 198.121 136.493 197.285 136.493 196.262V150.077C136.493 149.055 137.285 148.217 138.255 148.217C139.224 148.217 140.016 149.054 140.016 150.077V196.262C140.016 197.285 139.223 198.121 138.255 198.121Z" fill="#2525AD"/>
<path d="M181.618 121.971C178.097 118.807 173.48 116.804 169.101 115.634C164.605 114.432 159.909 114.125 155.312 114.706C153.924 114.881 152.542 115.118 151.176 115.431C150.24 115.646 149.213 115.814 148.345 116.261C147.439 116.73 146.551 117.246 145.654 117.738C143.227 119.07 140.799 120.402 138.372 121.735C137.405 122.265 137.519 123.804 138.372 124.366C140.616 125.847 143.186 126.037 145.727 125.596C147.514 125.285 149.146 124.563 150.841 123.924C153.888 122.775 157.179 122.213 160.397 122.196C163.265 122.182 166.175 122.65 168.825 123.884C172.746 125.722 177.436 126.945 181.335 124.366C182.043 123.896 182.334 122.615 181.618 121.971Z" fill="#7B70EE"/>
<path d="M160.459 113.011L160.465 112.977C160.26 112.977 160.058 112.99 159.853 112.994C159.649 112.99 159.446 112.977 159.24 112.977L159.246 113.011C139.033 113.712 122.842 131.761 122.842 153.938V178.792C122.842 181.552 124.896 183.79 127.433 183.79V159.287L127.334 158.65C125.787 148.713 127.765 138.37 133.333 130.32C135.935 126.56 139.458 123.019 144.228 120.46C144.285 120.43 144.341 120.4 144.399 120.37C154.118 115.211 165.588 115.211 175.308 120.37C175.365 120.4 175.421 120.43 175.478 120.46C180.277 123.034 183.814 126.602 186.419 130.386C191.955 138.43 193.915 148.746 192.372 158.656L192.274 159.288V183.791C194.809 183.791 196.865 181.554 196.865 178.793V153.939C196.864 131.761 180.672 113.712 160.459 113.011Z" fill="#2525AD"/>
<path d="M438.012 202.093H378.318V296.081H438.012V202.093Z" fill="#D5CBFB"/>
<path d="M431.568 215.879H384.761V217.959H431.568V215.879Z" fill="#7B70EE"/>
<path d="M431.568 225.428H384.761V227.508H431.568V225.428Z" fill="#7B70EE"/>
<path d="M431.568 234.978H384.761V237.059H431.568V234.978Z" fill="#7B70EE"/>
<path d="M431.568 244.528H384.761V246.608H431.568V244.528Z" fill="#7B70EE"/>
<path d="M431.568 254.077H384.761V256.157H431.568V254.077Z" fill="#7B70EE"/>
<path d="M431.568 263.627H384.761V265.708H431.568V263.627Z" fill="#7B70EE"/>
<path d="M431.569 286.825H384.762V287.397H431.569V286.825Z" fill="white"/>
<path d="M391.157 277.799C393.548 278.237 395.976 278.368 398.393 278.139C400.626 277.928 402.997 277.518 405.08 276.584C406.563 275.918 408.178 274.095 407.138 272.252C406.221 270.628 403.921 270.462 402.398 270.856C400.621 271.317 399.04 272.584 397.96 274.166C396.878 275.748 396.126 278.03 397.405 279.742C398.588 281.324 400.753 281.641 402.497 281.377C403.476 281.229 404.431 280.876 405.288 280.336C405.688 280.083 406.059 279.785 406.415 279.464C406.879 279.045 407.366 278.49 407.993 278.395C408.747 278.281 408.92 278.901 409.399 279.348C409.732 279.659 410.16 279.763 410.59 279.716C411.119 279.657 411.6 279.409 412.09 279.203C412.708 278.943 413.318 278.846 413.979 278.862C416.826 278.936 419.697 279.348 422.535 279.6C423.041 279.644 423.039 279.129 422.535 279.084C420.422 278.897 418.308 278.367 416.195 278.18C415.231 278.095 414.239 277.934 413.271 278.02C412.36 278.102 411.629 278.616 410.758 278.82C409.778 279.047 409.643 277.976 408.859 277.647C408.162 277.356 407.396 277.601 406.801 278.034C406.074 278.563 405.483 279.251 404.707 279.708C403.836 280.218 402.854 280.526 401.866 280.591C400.266 280.697 397.883 280.165 397.545 278.103C397.237 276.222 398.671 274.28 399.92 273.17C401.202 272.03 402.933 271.275 404.605 271.608C405.4 271.767 406.439 272.174 406.634 273.146C406.861 274.28 405.94 275.195 405.105 275.64C404.13 276.161 403.002 276.427 401.948 276.683C400.777 276.967 399.591 277.167 398.396 277.281C396.052 277.502 393.69 277.626 391.37 277.2C390.869 277.109 390.655 277.708 391.157 277.799Z" fill="#7B70EE"/>
<path d="M457.965 259.144L447.472 252.945L450.556 246.755C451.223 245.415 452.762 244.919 453.993 245.645L460.03 249.212C461.261 249.939 461.717 251.614 461.05 252.954L457.965 259.144Z" fill="#D5CBFB"/>
<path d="M457.225 260.582L446.731 254.383L416.421 315.2L426.914 321.399L457.225 260.582Z" fill="#2525AD"/>
<path d="M453.847 258.593L450.099 256.379L419.788 317.196L423.536 319.41L453.847 258.593Z" fill="#1C1C84"/>
<path d="M459.834 258.587L446.842 250.912L445.48 253.646L458.471 261.321L459.834 258.587Z" fill="#F0C64B"/>
<path d="M426.923 321.427L416.429 315.228L415.365 325.593L419.522 328.05L426.923 321.427Z" fill="#D5CBFB"/>
<path d="M419.522 328.05L415.365 325.593L414.666 332.392L419.522 328.05Z" fill="#2525AD"/>
<path d="M82.673 153.538L93.4109 165.229" stroke="#7B70EE" stroke-width="2.1457" stroke-miterlimit="10"/>
<path d="M93.627 153.538L82.8891 165.229" stroke="#7B70EE" stroke-width="2.1457" stroke-miterlimit="10"/>
<path d="M443.912 328.888L454.65 340.579" stroke="#7B70EE" stroke-width="2.1457" stroke-miterlimit="10"/>
<path d="M454.865 328.888L444.127 340.579" stroke="#7B70EE" stroke-width="2.1457" stroke-miterlimit="10"/>
<path d="M52.374 287.919L61.8834 298.271" stroke="#2525AD" stroke-width="1.9001" stroke-miterlimit="10"/>
<path d="M62.0735 287.919L52.5651 298.271" stroke="#2525AD" stroke-width="1.9001" stroke-miterlimit="10"/>
<path d="M47.3357 202.093C47.3357 206.766 43.856 210.555 39.5641 210.555C35.2721 210.555 31.7925 206.766 31.7925 202.093C31.7925 197.421 35.2721 193.632 39.5641 193.632C43.856 193.631 47.3357 197.42 47.3357 202.093Z" stroke="#7B70EE" stroke-width="2.1457" stroke-miterlimit="10"/>
<path d="M351.466 195.579C355.758 195.579 359.238 191.791 359.238 187.118C359.238 182.445 355.758 178.657 351.466 178.657C347.174 178.657 343.695 182.445 343.695 187.118C343.695 191.791 347.174 195.579 351.466 195.579Z" stroke="#7B70EE" stroke-width="2.1457" stroke-miterlimit="10"/>
<path d="M386.921 175.319C386.921 176.506 386.036 177.469 384.946 177.469C383.855 177.469 382.971 176.506 382.971 175.319C382.971 174.132 383.855 173.169 384.946 173.169C386.036 173.169 386.921 174.132 386.921 175.319Z" stroke="#2525AD" stroke-width="1.9001" stroke-miterlimit="10"/>
<path d="M196.485 103.629C196.485 104.817 195.6 105.78 194.51 105.78C193.419 105.78 192.535 104.817 192.535 103.629C192.535 102.442 193.419 101.479 194.51 101.479C195.6 101.479 196.485 102.442 196.485 103.629Z" stroke="#2525AD" stroke-width="1.9001" stroke-miterlimit="10"/>
<path d="M70.4703 376.48V381.564C64.1954 381.949 59.1951 387.613 59.1951 394.539V398.866C59.1951 405.963 64.4436 411.742 70.9346 411.866C73.2916 425.788 84.4908 436.34 97.961 436.34C113.144 436.34 125.452 422.94 125.452 406.41V376.48H70.4703ZM63.0579 398.865V394.538C63.0579 389.931 66.3264 386.145 70.4703 385.769V406.409C70.4703 406.82 70.4833 407.228 70.4983 407.635C66.3414 407.275 63.0579 403.483 63.0579 398.865Z" fill="#2525AD"/>
<path d="M111.757 342.408C108.26 340.444 103.665 341.37 100.853 344.368C100.349 340.001 96.5364 336.7 92.5385 336.049C88.5397 335.398 84.4828 336.924 80.9742 339.112C77.5336 341.258 74.3211 344.234 72.8795 348.256C71.4378 352.277 72.2452 357.461 75.5117 359.907C76.8383 360.901 78.5291 361.181 80.1168 360.891C80.3259 362.259 80.8231 363.564 81.6405 364.646C84.3648 368.252 89.9894 368.608 93.0798 365.371C95.4249 367.63 99.0245 368.201 101.864 366.763C102.481 366.45 103.052 366.042 103.572 365.566C103.363 368.562 102.317 371.496 100.556 373.814C103.967 372.522 106.883 369.753 108.522 366.249C109.596 363.952 110.102 361.356 110.035 358.781C112.69 358.225 115.126 356.109 115.99 353.279C117.234 349.212 115.256 344.371 111.757 342.408Z" fill="#D5CBFB"/>
<path d="M235.134 162.744L235.129 162.743C234.987 162.73 234.839 162.722 234.689 162.722C231.764 162.722 229.384 165.314 229.384 168.498C229.384 171.683 231.764 174.275 234.689 174.275C234.839 174.275 234.985 174.268 235.122 174.255C237.857 174.01 239.995 171.482 239.995 168.498C239.995 165.516 237.86 162.988 235.134 162.744Z" fill="#2525AD"/>
<path d="M253.727 168.499C253.727 167.502 253.37 166.564 252.721 165.857C252.072 165.151 251.21 164.762 250.293 164.762H248.329L248.126 164.039C247.863 163.096 247.513 162.178 247.088 161.31L246.761 160.643L248.151 159.129C249.49 157.671 249.49 155.3 248.151 153.843C247.503 153.137 246.641 152.748 245.723 152.748C244.806 152.748 243.944 153.137 243.296 153.842L241.906 155.356L241.293 155C240.496 154.536 239.653 154.155 238.786 153.869L238.123 153.649V151.51C238.123 149.74 236.966 148.198 235.374 147.847C235.149 147.798 234.918 147.773 234.69 147.773C233.774 147.773 232.911 148.161 232.263 148.867C231.615 149.574 231.258 150.512 231.258 151.51V153.649L230.594 153.869C229.728 154.155 228.885 154.537 228.087 155L227.475 155.356L226.084 153.842C224.747 152.385 222.568 152.385 221.229 153.842C220.582 154.548 220.225 155.486 220.225 156.485C220.225 157.484 220.582 158.422 221.23 159.128L222.621 160.642L222.293 161.308C221.867 162.177 221.518 163.095 221.254 164.038L221.052 164.761H219.087C217.194 164.761 215.654 166.438 215.654 168.498C215.654 169.496 216.012 170.435 216.66 171.141C217.308 171.847 218.171 172.236 219.087 172.236H221.052L221.254 172.958C221.518 173.901 221.867 174.819 222.293 175.687L222.621 176.354L221.23 177.868C219.891 179.325 219.891 181.697 221.23 183.154C221.878 183.859 222.74 184.248 223.658 184.248C224.576 184.248 225.437 183.859 226.085 183.153L227.476 181.639L228.088 181.995C228.886 182.459 229.729 182.839 230.595 183.127L231.259 183.347V185.486C231.259 187.547 232.798 189.223 234.691 189.223C234.913 189.223 235.138 189.199 235.359 189.152L235.464 189.128C236.09 188.972 236.66 188.627 237.118 188.128C237.767 187.422 238.124 186.484 238.124 185.486V183.347L238.787 183.127C239.654 182.84 240.497 182.459 241.294 181.995L241.907 181.639L243.297 183.154C243.943 183.858 244.806 184.245 245.724 184.245C246.643 184.245 247.505 183.858 248.152 183.153C248.8 182.447 249.157 181.508 249.157 180.509C249.157 179.512 248.8 178.573 248.151 177.867L246.761 176.354L247.088 175.687C247.514 174.819 247.863 173.9 248.127 172.958L248.33 172.236H250.294C252.186 172.237 253.727 170.56 253.727 168.499ZM241.791 175.651C240.143 177.591 237.906 178.78 235.493 178.995C235.234 179.019 234.962 179.032 234.689 179.032C229.355 179.032 225.015 174.307 225.015 168.499C225.015 162.692 229.355 157.967 234.689 157.967C234.963 157.967 235.237 157.98 235.504 158.005C237.908 158.219 240.143 159.407 241.793 161.348C243.451 163.3 244.365 165.84 244.365 168.501C244.364 171.16 243.45 173.701 241.791 175.651Z" fill="#2525AD"/>
<path d="M382.034 331.228L382.032 331.231C381.991 331.323 381.953 331.419 381.917 331.518C381.231 333.458 382.122 335.645 383.905 336.391C385.687 337.138 387.696 336.167 388.381 334.227C388.416 334.128 388.446 334.03 388.471 333.935C388.976 332.063 388.062 330.053 386.393 329.353C384.726 328.654 382.81 329.478 382.034 331.228Z" fill="#2525AD"/>
<path d="M389.615 320.246C389.057 320.012 388.447 320.03 387.9 320.293C387.353 320.558 386.934 321.038 386.718 321.646L386.257 322.95L385.805 322.914C385.216 322.867 384.619 322.885 384.034 322.963L383.585 323.024L383.064 321.746C382.563 320.517 381.236 319.961 380.106 320.507C379.559 320.771 379.14 321.252 378.925 321.861C378.71 322.468 378.725 323.132 378.968 323.727L379.489 325.004L379.146 325.327C378.7 325.747 378.289 326.216 377.925 326.724L377.646 327.113L376.449 326.611C375.458 326.196 374.325 326.601 373.754 327.575C373.674 327.712 373.606 327.859 373.552 328.01C373.337 328.618 373.353 329.282 373.595 329.877C373.838 330.473 374.28 330.931 374.838 331.164L376.036 331.666L376.002 332.158C375.959 332.8 375.975 333.449 376.048 334.086L376.104 334.576L374.93 335.144C373.801 335.69 373.29 337.134 373.791 338.364C374.035 338.958 374.476 339.416 375.035 339.65C375.593 339.884 376.203 339.868 376.75 339.603L377.923 339.036L378.22 339.409C378.605 339.895 379.037 340.343 379.503 340.738L379.86 341.042L379.399 342.346C378.955 343.602 379.532 345.015 380.686 345.499C381.244 345.733 381.853 345.716 382.4 345.452C382.948 345.188 383.367 344.707 383.582 344.099L384.043 342.796L384.495 342.832C385.085 342.878 385.681 342.861 386.266 342.783L386.715 342.722L387.237 343.999C387.738 345.229 389.065 345.784 390.194 345.239C390.74 344.974 391.16 344.494 391.376 343.885C391.591 343.277 391.576 342.614 391.333 342.018L390.811 340.74L391.154 340.418C391.601 339.997 392.012 339.528 392.375 339.02L392.654 338.632L393.852 339.134C395.005 339.617 396.304 338.989 396.748 337.733C396.8 337.586 396.839 337.431 396.865 337.273L396.876 337.198C396.935 336.746 396.876 336.286 396.704 335.866C396.461 335.27 396.02 334.813 395.462 334.58L394.264 334.077L394.297 333.585C394.339 332.944 394.324 332.294 394.252 331.657L394.196 331.167L395.369 330.6C395.915 330.336 396.334 329.854 396.55 329.246C396.765 328.637 396.75 327.973 396.508 327.379C396.265 326.784 395.824 326.326 395.264 326.092C394.706 325.858 394.097 325.874 393.55 326.139L392.377 326.707L392.081 326.333C391.695 325.847 391.263 325.4 390.797 325.004L390.44 324.7L390.901 323.396C391.345 322.145 390.768 320.73 389.615 320.246ZM390.818 329.84C391.518 331.389 391.657 333.152 391.213 334.803C391.166 334.98 391.108 335.163 391.044 335.344C389.793 338.882 386.131 340.653 382.882 339.29C379.632 337.928 378.005 333.941 379.257 330.403C379.321 330.222 379.393 330.043 379.469 329.873C380.153 328.328 381.342 327.125 382.815 326.487C384.295 325.844 385.931 325.834 387.42 326.458C388.908 327.08 390.115 328.283 390.818 329.84Z" fill="#2525AD"/>
</svg>
