<svg width="60" height="61" viewBox="0 0 60 61" fill="none" xmlns="http://www.w3.org/2000/svg">
<path d="M53.3906 15.6406C53.7187 15.6406 53.9766 15.3828 53.9766 15.0547V6.58203C53.9766 6.25391 53.7187 5.99609 53.3906 5.99609H44.918C44.5898 5.99609 44.332 6.25391 44.332 6.58203C44.332 6.91016 44.5898 7.16797 44.918 7.16797H52.8047V15.0547C52.8047 15.3711 53.0742 15.6406 53.3906 15.6406ZM53.2031 42.1133C53.5195 42.1133 53.7891 41.8555 53.7891 41.5391L53.918 33.0664C53.918 32.7383 53.6602 32.4805 53.3438 32.4688H53.332C53.0156 32.4688 52.7461 32.7266 52.7461 33.043L52.6172 40.9297L44.7305 40.8008H44.7188C44.4023 40.8008 44.1328 41.0586 44.1328 41.375C44.1328 41.7031 44.3906 41.9609 44.707 41.9727L53.2031 42.1133ZM31.6758 50.5156L33.3633 58.0977L35.4609 56L41.7656 58.0977L35.8008 48.1484C34.6992 49.2969 33.2695 50.1406 31.6758 50.5156ZM18.6328 58.0977L24.9375 56L27.0352 58.0977L28.6875 50.668C27.0117 50.457 25.4766 49.7539 24.2578 48.7109L18.6328 58.0977ZM6.02343 41.9258H14.4961C14.8242 41.9258 15.082 41.668 15.082 41.3398C15.082 41.0117 14.8242 40.7539 14.4961 40.7539H6.60937V32.8672C6.60937 32.5391 6.35156 32.2813 6.02343 32.2813C5.69531 32.2813 5.4375 32.5391 5.4375 32.8672V41.3398C5.4375 41.6563 5.69531 41.9258 6.02343 41.9258ZM5.95312 15.6289C6.26953 15.6289 6.53906 15.3711 6.53906 15.0547L6.66796 7.16797L14.543 7.29687H14.5547C14.8711 7.29687 15.1406 7.03906 15.1406 6.72266C15.1406 6.39453 14.8828 6.13672 14.5664 6.125L6.09375 5.99609C5.77734 5.99609 5.50781 6.25391 5.49609 6.57031L5.36718 15.043C5.36718 15.3594 5.625 15.6172 5.95312 15.6289ZM11.2734 16.6836H47.0156C47.3437 16.6836 47.6016 16.4258 47.6016 16.0977C47.6016 15.7695 47.3437 15.5117 47.0156 15.5117H11.2734C10.9453 15.5117 10.6875 15.7695 10.6875 16.0977C10.6875 16.4258 10.957 16.6836 11.2734 16.6836Z" fill="#5C77FF"/>
<path d="M14.4375 23H44.918C45.2461 23 45.5039 22.7422 45.5039 22.4141C45.5039 22.0859 45.2461 21.8281 44.918 21.8281H14.4258C14.0977 21.8281 13.8398 22.0859 13.8398 22.4141C13.8398 22.7422 14.1094 23 14.4375 23Z" fill="#92AAFF"/>
<path d="M1.875 1.78906H57.5977C57.9258 1.78906 58.1836 2.04688 58.1836 2.375V45.4766C58.1836 45.8047 57.9258 46.0625 57.5977 46.0625H37.9219C37.5 46.9766 36.9375 47.8203 36.2227 48.5586C35.4023 49.4141 34.4297 50.0938 33.3633 50.5625C32.8594 50.7852 32.3438 50.9609 31.8047 51.0898C31.1367 51.2539 30.4336 51.3242 29.7305 51.3242C29.3555 51.3242 28.9805 51.3008 28.6172 51.2539C26.8594 51.043 25.2188 50.3164 23.8711 49.1562C22.875 48.3125 22.0781 47.2461 21.5391 46.0625H1.875C1.54688 46.0625 1.28906 45.8047 1.28906 45.4766V2.375C1.28906 2.04688 1.54688 1.78906 1.875 1.78906ZM21.9258 42.7344C21.9727 43.6133 22.1602 44.457 22.4883 45.2656C22.957 46.4258 23.707 47.457 24.6562 48.2773C25.8281 49.2852 27.2578 49.9062 28.7812 50.0938C29.0859 50.1289 29.4141 50.1523 29.7422 50.1523C30.3047 50.1523 30.8555 50.0938 31.3945 49.9766C31.4414 49.9648 31.4883 49.9531 31.5469 49.9414C33.0117 49.5898 34.3359 48.8398 35.3906 47.7383C36.082 47.0117 36.6328 46.1797 37.0078 45.2539C37.3828 44.3164 37.582 43.332 37.582 42.3242C37.582 38.5625 34.9102 35.4102 31.3711 34.6719C30.8555 34.5547 30.3047 34.5078 29.7539 34.5078C25.4414 34.5078 21.9258 38.0117 21.9258 42.3359C21.9141 42.4648 21.9141 42.5938 21.9258 42.7344ZM2.46094 44.8906H21.1055C21.1055 44.8789 21.1055 44.8672 21.0938 44.8672C21.0586 44.75 21.0234 44.6328 21 44.5156C20.9883 44.4805 20.9883 44.4453 20.9766 44.3984C20.9531 44.3047 20.9297 44.2109 20.918 44.1172C20.9062 44.082 20.9062 44.0469 20.8945 44.0117C20.8711 43.8828 20.8477 43.7539 20.8242 43.625V43.6133C20.8008 43.4844 20.7891 43.3672 20.7773 43.2383C20.7773 43.2031 20.7656 43.1562 20.7656 43.1211C20.7539 43.0273 20.7539 42.9336 20.7422 42.8281C20.7422 42.793 20.7422 42.7461 20.7305 42.7109C20.7305 42.582 20.7188 42.4531 20.7188 42.3125C20.7188 37.3555 24.75 33.3125 29.7188 33.3125C30.9961 33.3125 32.2031 33.582 33.3047 34.0625C36.4805 35.4453 38.7188 38.6211 38.7188 42.3125C38.7188 42.4414 38.7188 42.5703 38.707 42.7109C38.707 42.7461 38.707 42.793 38.6953 42.8281C38.6836 42.9219 38.6836 43.0156 38.6719 43.1094C38.6719 43.1445 38.6602 43.1914 38.6602 43.2266C38.6484 43.3438 38.6367 43.4727 38.6133 43.5898C38.6133 43.6016 38.6133 43.6016 38.6133 43.6133C38.5898 43.7422 38.5664 43.8711 38.543 43.9883C38.5312 44.0234 38.5312 44.0586 38.5195 44.1055C38.4961 44.1992 38.4844 44.293 38.4609 44.375C38.4492 44.4102 38.4375 44.457 38.4375 44.4922C38.4141 44.6094 38.3789 44.7148 38.3438 44.832C38.3438 44.8438 38.332 44.8555 38.332 44.8672H57.0117V2.96094H2.46094V44.8906Z" fill="#354B87"/>
<path d="M29.7422 37.0742L28.1953 40.2031L24.7383 40.707L27.2344 43.1445L26.6484 46.5781L29.7422 44.9609L32.8242 46.5781L32.2383 43.1445L34.7344 40.707L31.2773 40.2031L29.7422 37.0742Z" fill="#5C77FF"/>
<path opacity="0.3" d="M17.5313 29.4453H42.4688C42.7969 29.4453 43.0547 29.1875 43.0547 28.8594C43.0547 28.5312 42.7969 28.2734 42.4688 28.2734H17.5313C17.2031 28.2734 16.9453 28.5312 16.9453 28.8594C16.9453 29.1875 17.2031 29.4453 17.5313 29.4453Z" fill="#485EFF"/>
<path opacity="0.3" d="M21.9141 42.3242C21.9141 42.4648 21.9141 42.5938 21.9258 42.7344C21.9727 43.6133 22.1602 44.457 22.4883 45.2656C22.957 46.4258 23.707 47.457 24.6562 48.2773C25.8281 49.2852 27.2578 49.9062 28.7812 50.0938C29.0859 50.1289 29.4141 50.1523 29.7422 50.1523C30.3047 50.1523 30.8555 50.0938 31.3945 49.9766C28.4414 48.6875 26.3789 45.7461 26.3789 42.3125C26.3789 38.9023 28.418 35.9727 31.3477 34.6719C30.832 34.5547 30.2813 34.5078 29.7305 34.5078C25.418 34.4961 21.9141 38.0117 21.9141 42.3242ZM2.12109 30.5L2.46094 2.96094H57.0117L57.5391 29.3281C57.5391 29.3281 54.4922 4.54297 29.6836 4.54297C3.86719 4.54297 2.12109 30.5 2.12109 30.5Z" fill="#485EFF"/>
</svg>
