<svg width="60" height="60" viewBox="0 0 60 60" fill="none" xmlns="http://www.w3.org/2000/svg">
<path d="M56.83 8.3463C56.9358 8.3463 57.0375 8.30423 57.1125 8.22934L59.8825 5.45926C60.1341 5.20766 59.9545 4.7777 59.6001 4.7777H57.1422L57.8756 4.04423C58.4047 3.51512 58.4047 2.6538 57.8756 2.12458C57.3459 1.59512 56.4849 1.59583 55.9558 2.12458L55.2224 2.85805V0.399929C55.2224 0.0455536 54.7927 -0.133626 54.5408 0.117507L51.7707 2.88758C51.6958 2.96251 51.6538 3.06409 51.6538 3.17001V6.42641L48.3028 9.77739C43.1693 5.10126 36.3539 2.2413 28.8792 2.2413C12.955 2.2413 -3.05176e-05 15.1965 -3.05176e-05 31.1207C-3.05176e-05 47.045 12.9552 59.9998 28.8793 59.9998C44.8034 59.9998 57.7588 47.0449 57.7588 31.1207C57.7588 23.6462 54.894 16.8355 50.2177 11.7021L53.5735 8.3463H56.83ZM56.5206 2.68907C56.6254 2.58438 56.7676 2.52559 56.9158 2.52559C57.064 2.52559 57.2061 2.58438 57.311 2.68907C57.4156 2.79402 57.4743 2.93613 57.4743 3.08428C57.4743 3.23244 57.4156 3.37455 57.311 3.4795L56.0129 4.77759H55.2225V3.98716L56.5206 2.68907ZM52.4525 3.33536L54.4241 1.3638V5.17673C54.4241 5.22917 54.4344 5.28111 54.4545 5.32956C54.4745 5.37801 54.504 5.42204 54.541 5.45913C54.5781 5.49621 54.6222 5.52563 54.6706 5.5457C54.7191 5.56577 54.771 5.5761 54.8234 5.5761H58.6364L56.6648 7.54766H52.4525V3.33536ZM56.9601 31.1207C56.9601 46.6045 44.3633 59.2013 28.8793 59.2013C13.3954 59.2013 0.798602 46.6045 0.798602 31.1207C0.798602 15.6368 13.3954 3.03993 28.8793 3.03993C36.1339 3.03993 42.7493 5.81094 47.7376 10.3427L43.0591 15.0212C39.2735 11.6829 34.3114 9.64954 28.8793 9.64954C17.0402 9.64954 7.40821 19.2813 7.40821 31.1204C7.40821 42.9595 17.0401 52.5917 28.8793 52.5917C40.7185 52.5917 50.3505 42.9596 50.3505 31.1205C50.3505 25.6886 48.3111 20.7324 44.9723 16.9475L49.6529 12.2669C54.1848 17.255 56.9601 23.8663 56.9601 31.1207ZM28.5747 31.4253C29.1044 31.955 29.9628 31.957 30.4945 31.4253L33.8608 28.059C34.4125 28.9504 34.7354 29.9974 34.7354 31.1205C34.7354 34.3495 32.1081 36.9767 28.8792 36.9767C25.65 36.9767 23.023 34.3494 23.023 31.1205C23.023 27.8916 25.65 25.2645 28.8792 25.2645C30.0027 25.2645 31.0499 25.5872 31.942 26.1382L28.5746 29.5056C28.045 30.0351 28.0431 30.8935 28.5747 31.4253ZM32.5167 25.5637C31.4699 24.8747 30.2237 24.466 28.8793 24.466C25.2098 24.466 22.2245 27.4511 22.2245 31.1205C22.2245 34.7899 25.2098 37.7754 28.8793 37.7754C32.5488 37.7754 35.534 34.79 35.534 31.1205C35.534 29.7764 35.1228 28.5327 34.4322 27.4876L39.161 22.7587C41.0222 25.0424 42.1436 27.9515 42.1436 31.1205C42.1436 38.4344 36.1932 44.385 28.8792 44.385C21.5652 44.385 15.6149 38.4344 15.6149 31.1205C15.6149 23.8066 21.5653 17.8564 28.8793 17.8564C32.0483 17.8564 34.9572 18.9782 37.241 20.8394L32.5167 25.5637ZM37.8082 20.2722C35.3776 18.2679 32.2686 17.0578 28.8793 17.0578C21.125 17.0578 14.8163 23.3663 14.8163 31.1205C14.8163 38.875 21.1251 45.1835 28.8793 45.1835C36.6338 45.1835 42.9423 38.8749 42.9423 31.1205C42.9423 27.7313 41.7316 24.6234 39.7265 22.1932L44.4078 17.5119C47.6025 21.1514 49.5518 25.9088 49.5518 31.1205C49.5518 42.5195 40.2781 51.7932 28.8791 51.7932C17.4802 51.7932 8.20661 42.5196 8.20661 31.1205C8.20661 19.7218 17.4802 10.4482 28.8791 10.4482C34.091 10.4482 38.8551 12.3909 42.4951 15.5851L37.8082 20.2722ZM29.93 30.8606C29.7185 31.0721 29.3511 31.0721 29.1396 30.8606C29.0876 30.8087 29.0464 30.7471 29.0183 30.6793C28.9902 30.6115 28.9757 30.5388 28.9757 30.4654C28.9757 30.392 28.9902 30.3193 29.0183 30.2515C29.0464 30.1836 29.0876 30.122 29.1396 30.0702L51.6538 7.55587V7.94704C51.6538 8.05296 51.6958 8.15454 51.7707 8.22944C51.8456 8.30434 51.9472 8.34641 52.0531 8.34641H52.4444L29.93 30.8606Z" fill="#F94949"/>
</svg>
