<svg width="60" height="60" viewBox="0 0 60 60" fill="none" xmlns="http://www.w3.org/2000/svg">
<g clip-path="url(#clip0_44_168)">
<path d="M0.714286 53.6607C1.10877 53.6607 1.42857 53.341 1.42857 52.9465C1.42857 52.552 1.10877 52.2322 0.714286 52.2322C0.319797 52.2322 0 52.552 0 52.9465C0 53.341 0.319797 53.6607 0.714286 53.6607Z" fill="#2D4356"/>
<path d="M3.92857 52.2322H2.85714C2.6677 52.2322 2.48602 52.3074 2.35206 52.4414C2.21811 52.5753 2.14285 52.757 2.14285 52.9465C2.14285 53.1359 2.21811 53.3176 2.35206 53.4515C2.48602 53.5855 2.6677 53.6607 2.85714 53.6607H3.92857C4.11801 53.6607 4.29969 53.5855 4.43364 53.4515C4.5676 53.3176 4.64285 53.1359 4.64285 52.9465C4.64285 52.757 4.5676 52.5753 4.43364 52.4414C4.29969 52.3074 4.11801 52.2322 3.92857 52.2322ZM57.1429 52.2322H56.0714C55.882 52.2322 55.7003 52.3074 55.5663 52.4414C55.4324 52.5753 55.3571 52.757 55.3571 52.9465C55.3571 53.1359 55.4324 53.3176 55.5663 53.4515C55.7003 53.5855 55.882 53.6607 56.0714 53.6607H57.1429C57.3323 53.6607 57.514 53.5855 57.6479 53.4515C57.7819 53.3176 57.8571 53.1359 57.8571 52.9465C57.8571 52.757 57.7819 52.5753 57.6479 52.4414C57.514 52.3074 57.3323 52.2322 57.1429 52.2322Z" fill="#2D4356"/>
<path d="M59.2857 53.6607C59.6802 53.6607 60 53.341 60 52.9465C60 52.552 59.6802 52.2322 59.2857 52.2322C58.8912 52.2322 58.5714 52.552 58.5714 52.9465C58.5714 53.341 58.8912 53.6607 59.2857 53.6607Z" fill="#2D4356"/>
<path d="M42.1978 55.0892H39.2308C39.0512 55.1036 38.8836 55.1851 38.7614 55.3175C38.6393 55.4498 38.5714 55.6234 38.5714 55.8035C38.5714 55.9837 38.6393 56.1572 38.7614 56.2896C38.8836 56.4219 39.0512 56.5034 39.2308 56.5178H42.1978C42.3774 56.5034 42.5449 56.4219 42.6671 56.2896C42.7893 56.1572 42.8571 55.9837 42.8571 55.8035C42.8571 55.6234 42.7893 55.4498 42.6671 55.3175C42.5449 55.1851 42.3774 55.1036 42.1978 55.0892ZM20.7692 55.0892H17.8022C17.6226 55.1036 17.4551 55.1851 17.3329 55.3175C17.2107 55.4498 17.1428 55.6234 17.1428 55.8035C17.1428 55.9837 17.2107 56.1572 17.3329 56.2896C17.4551 56.4219 17.6226 56.5034 17.8022 56.5178H20.7692C20.9488 56.5034 21.1164 56.4219 21.2385 56.2896C21.3607 56.1572 21.4286 55.9837 21.4286 55.8035C21.4286 55.6234 21.3607 55.4498 21.2385 55.3175C21.1164 55.1851 20.9488 55.1036 20.7692 55.0892ZM37.1428 55.0892H22.8571C22.6677 55.0892 22.486 55.1645 22.3521 55.2984C22.2181 55.4324 22.1428 55.6141 22.1428 55.8035C22.1428 55.993 22.2181 56.1746 22.3521 56.3086C22.486 56.4426 22.6677 56.5178 22.8571 56.5178H28.55V57.2321H25.7143C25.5248 57.2321 25.3432 57.3073 25.2092 57.4413C25.0752 57.5753 25 57.7569 25 57.9464C25 58.1358 25.0752 58.3175 25.2092 58.4515C25.3432 58.5854 25.5248 58.6607 25.7143 58.6607H34.6428C34.8323 58.6607 35.014 58.5854 35.1479 58.4515C35.2819 58.3175 35.3571 58.1358 35.3571 57.9464C35.3571 57.7569 35.2819 57.5753 35.1479 57.4413C35.014 57.3073 34.8323 57.2321 34.6428 57.2321H31.45V56.5178H37.1428C37.3323 56.5178 37.514 56.4426 37.6479 56.3086C37.7819 56.1746 37.8571 55.993 37.8571 55.8035C37.8571 55.6141 37.7819 55.4324 37.6479 55.2984C37.514 55.1645 37.3323 55.0892 37.1428 55.0892ZM42.5 22.5892H17.5C17.3106 22.5892 17.1289 22.6645 16.9949 22.7984C16.861 22.9324 16.7857 23.1141 16.7857 23.3035C16.7857 23.493 16.861 23.6746 16.9949 23.8086C17.1289 23.9426 17.3106 24.0178 17.5 24.0178H42.5C42.6894 24.0178 42.8711 23.9426 43.0051 23.8086C43.139 23.6746 43.2143 23.493 43.2143 23.3035C43.2143 23.1141 43.139 22.9324 43.0051 22.7984C42.8711 22.6645 42.6894 22.5892 42.5 22.5892Z" fill="#0BCEB2"/>
<path d="M17.5 27.5893H38.1897C38.3791 27.5893 38.5608 27.5141 38.6948 27.3801C38.8287 27.2462 38.904 27.0645 38.904 26.8751C38.904 26.6856 38.8287 26.5039 38.6948 26.37C38.5608 26.236 38.3791 26.1608 38.1897 26.1608H17.5C17.3106 26.1608 17.1289 26.236 16.9949 26.37C16.861 26.5039 16.7857 26.6856 16.7857 26.8751C16.7857 27.0645 16.861 27.2462 16.9949 27.3801C17.1289 27.5141 17.3106 27.5893 17.5 27.5893Z" fill="#2D4356"/>
<path d="M42.5 29.7322H17.5C17.3106 29.7322 17.1289 29.8074 16.9949 29.9414C16.861 30.0753 16.7857 30.257 16.7857 30.4465C16.7857 30.6359 16.861 30.8176 16.9949 30.9515C17.1289 31.0855 17.3106 31.1607 17.5 31.1607H42.5C42.6894 31.1607 42.8711 31.0855 43.0051 30.9515C43.139 30.8176 43.2143 30.6359 43.2143 30.4465C43.2143 30.257 43.139 30.0753 43.0051 29.9414C42.8711 29.8074 42.6894 29.7322 42.5 29.7322Z" fill="#0BCEB2"/>
<path d="M17.5 34.7322H38.1897C38.3791 34.7322 38.5608 34.6569 38.6948 34.523C38.8287 34.389 38.904 34.2073 38.904 34.0179C38.904 33.8284 38.8287 33.6468 38.6948 33.5128C38.5608 33.3788 38.3791 33.3036 38.1897 33.3036H17.5C17.3106 33.3036 17.1289 33.3788 16.9949 33.5128C16.861 33.6468 16.7857 33.8284 16.7857 34.0179C16.7857 34.2073 16.861 34.389 16.9949 34.523C17.1289 34.6569 17.3106 34.7322 17.5 34.7322ZM38.6066 40.583L37.3995 41.7349C37.4159 41.7808 37.4275 41.8288 37.443 41.875H38.1897C38.3407 41.8753 38.4879 41.8277 38.6101 41.7389C38.7323 41.6501 38.8231 41.5248 38.8695 41.3811C38.9159 41.2374 38.9154 41.0826 38.8682 40.9392C38.8209 40.7957 38.7294 40.671 38.6066 40.583ZM16.7857 41.1607C16.7857 41.3502 16.861 41.5318 16.9949 41.6658C17.1289 41.7997 17.3106 41.875 17.5 41.875H22.553C22.7202 41.3783 22.9369 40.8997 23.1999 40.4464H17.5C17.3106 40.4465 17.1289 40.5217 16.9949 40.6557C16.861 40.7896 16.7857 40.9713 16.7857 41.1607Z" fill="#2D4356"/>
<path d="M17.5 38.3036H25.0186C25.7979 37.6622 26.6934 37.1772 27.6563 36.875H17.5C17.3106 36.875 17.1289 36.9503 16.9949 37.0842C16.861 37.2182 16.7857 37.3998 16.7857 37.5893C16.7857 37.7787 16.861 37.9604 16.9949 38.0944C17.1289 38.2283 17.3106 38.3036 17.5 38.3036ZM42.5 36.875H32.3184C33.2464 37.1614 34.1133 37.6175 34.8751 38.22L35.6634 37.4677C35.9219 37.2205 36.2384 37.0419 36.5837 36.9485C36.9291 36.855 37.2924 36.8496 37.6403 36.9327C37.9883 37.0159 38.3099 37.1849 38.5758 37.4244C38.8416 37.6638 39.0431 37.9661 39.162 38.3036H42.5C42.6894 38.3036 42.8711 38.2283 43.0051 38.0944C43.139 37.9604 43.2143 37.7787 43.2143 37.5893C43.2143 37.3998 43.139 37.2182 43.0051 37.0842C42.8711 36.9503 42.6894 36.875 42.5 36.875Z" fill="#0BCEB2"/>
<path d="M34.9831 44.0409C34.9905 44.1518 35 44.2622 35 44.375C35 45.7011 34.4732 46.9729 33.5355 47.9105C32.5978 48.8482 31.3261 49.375 30 49.375C28.6739 49.375 27.4021 48.8482 26.4645 47.9105C25.5268 46.9729 25 45.7011 25 44.375C25 44.266 25.0094 44.1595 25.0163 44.0522C24.9843 43.6837 25.0485 43.3132 25.2027 42.977C25.4215 42.2226 25.8152 41.5305 26.3518 40.9569C26.8884 40.3833 27.5528 39.9444 28.2909 39.6759C29.029 39.4073 29.8201 39.3167 30.5998 39.4114C31.3796 39.5061 32.126 39.7834 32.7784 40.2208L33.826 39.2211C32.6036 38.3095 31.0986 37.8589 29.5765 37.9486C28.0543 38.0383 26.6127 38.6627 25.5059 39.7116C24.3991 40.7605 23.6983 42.1665 23.5269 43.6817C23.3556 45.1969 23.7249 46.7239 24.5695 47.9934C25.4142 49.2629 26.68 50.1934 28.1437 50.6207C29.6074 51.0481 31.1751 50.9448 32.5701 50.3292C33.9651 49.7135 35.0979 48.6251 35.7688 47.2557C36.4396 45.8864 36.6053 44.3241 36.2368 42.8445L34.9831 44.0409Z" fill="#2D4356"/>
<path d="M27.6247 43.3354C27.4848 43.2076 27.2999 43.1406 27.1107 43.1491C26.9214 43.1577 26.7433 43.241 26.6155 43.3809C26.4877 43.5207 26.4207 43.7056 26.4293 43.8949C26.4378 44.0842 26.5212 44.2623 26.661 44.3901L29.176 46.6881C29.3096 46.8102 29.4846 46.877 29.6656 46.875C29.8466 46.873 30.0201 46.8024 30.151 46.6775L37.636 39.5346C37.7722 39.4036 37.8508 39.224 37.8549 39.0351C37.8589 38.8462 37.7879 38.6635 37.6574 38.5268C37.527 38.3901 37.3477 38.3107 37.1588 38.3059C36.97 38.3011 36.7869 38.3713 36.6497 38.5012L29.6472 45.1835L27.6247 43.3354Z" fill="#0BCEB2"/>
<path d="M53.8291 52.2321H47.1134C47.3665 51.7985 47.4999 51.3055 47.5 50.8035V10.8035C47.4992 10.046 47.1979 9.31979 46.6622 8.78415C46.1266 8.24852 45.4004 7.94723 44.6429 7.94638H15.3572C14.5997 7.94723 13.8734 8.24852 13.3378 8.78415C12.8022 9.31979 12.5009 10.046 12.5 10.8035V50.8035C12.5002 51.3055 12.6336 51.7985 12.8866 52.2321H6.17097C6.06935 52.2188 5.96607 52.2274 5.86803 52.2572C5.76998 52.287 5.67943 52.3374 5.60241 52.405C5.5254 52.4726 5.46369 52.5559 5.42142 52.6492C5.37915 52.7426 5.35728 52.8439 5.35728 52.9464C5.35728 53.0489 5.37915 53.1502 5.42142 53.2435C5.46369 53.3369 5.5254 53.4201 5.60241 53.4877C5.67943 53.5553 5.76998 53.6057 5.86803 53.6356C5.96607 53.6654 6.06935 53.6739 6.17097 53.6607H53.8291C53.9307 53.6739 54.0339 53.6654 54.132 53.6356C54.23 53.6057 54.3206 53.5553 54.3976 53.4877C54.4746 53.4201 54.5363 53.3369 54.5786 53.2435C54.6209 53.1502 54.6427 53.0489 54.6427 52.9464C54.6427 52.8439 54.6209 52.7426 54.5786 52.6492C54.5363 52.5559 54.4746 52.4726 54.3976 52.405C54.3206 52.3374 54.23 52.287 54.132 52.2572C54.0339 52.2274 53.9307 52.2188 53.8291 52.2321ZM13.9286 10.8035C13.9286 10.4246 14.0791 10.0613 14.347 9.79337C14.6149 9.52546 14.9783 9.37495 15.3572 9.37495H44.6429C45.0217 9.37495 45.3851 9.52546 45.653 9.79337C45.9209 10.0613 46.0714 10.4246 46.0714 10.8035V19.0178H13.9286V10.8035ZM15.3572 52.2321C14.9783 52.2321 14.6149 52.0816 14.347 51.8137C14.0791 51.5458 13.9286 51.1824 13.9286 50.8035V20.4464H46.0714V45.5078L39.3471 52.2321H15.3572ZM41.3672 52.2321L46.0714 47.5279V50.8035C46.0714 51.1824 45.9209 51.5458 45.653 51.8137C45.3851 52.0816 45.0217 52.2321 44.6429 52.2321H41.3672ZM18.9214 6.37961C19.1333 6.37961 19.3404 6.31677 19.5166 6.19904C19.6928 6.08131 19.8302 5.91398 19.9113 5.7182C19.9924 5.52242 20.0136 5.30699 19.9722 5.09915C19.9309 4.89132 19.8288 4.70041 19.679 4.55057C19.5292 4.40072 19.3383 4.29868 19.1304 4.25734C18.9226 4.216 18.7071 4.23722 18.5114 4.31831C18.3156 4.3994 18.1483 4.53673 18.0305 4.71293C17.9128 4.88912 17.85 5.09627 17.85 5.30818C17.8503 5.59224 17.9633 5.86457 18.1641 6.06543C18.365 6.2663 18.6373 6.37928 18.9214 6.37961ZM18.9214 4.77247C19.0273 4.77247 19.1309 4.80388 19.219 4.86275C19.3071 4.92161 19.3758 5.00528 19.4163 5.10317C19.4569 5.20106 19.4675 5.30877 19.4468 5.41269C19.4261 5.51661 19.3751 5.61207 19.3002 5.68699C19.2253 5.76191 19.1298 5.81293 19.0259 5.8336C18.922 5.85427 18.8143 5.84366 18.7164 5.80312C18.6185 5.76257 18.5348 5.6939 18.476 5.60581C18.4171 5.51771 18.3857 5.41413 18.3857 5.30818C18.3858 5.16614 18.4423 5.02996 18.5427 4.92953C18.6432 4.82909 18.7794 4.77261 18.9214 4.77247ZM57.8572 22.9417C57.7159 22.9417 57.5778 22.9836 57.4603 23.0621C57.3429 23.1406 57.2513 23.2522 57.1972 23.3827C57.1432 23.5132 57.129 23.6568 57.1566 23.7954C57.1842 23.9339 57.2522 24.0612 57.3521 24.1611C57.452 24.261 57.5792 24.329 57.7178 24.3566C57.8564 24.3841 58 24.37 58.1305 24.3159C58.261 24.2619 58.3726 24.1703 58.4511 24.0529C58.5295 23.9354 58.5714 23.7973 58.5714 23.656C58.5712 23.4666 58.4959 23.2851 58.362 23.1512C58.2281 23.0173 58.0465 22.9419 57.8572 22.9417ZM57.8572 24.0132C57.7865 24.0132 57.7175 23.9922 57.6587 23.953C57.6 23.9137 57.5542 23.858 57.5272 23.7927C57.5002 23.7274 57.4931 23.6556 57.5069 23.5863C57.5207 23.5171 57.5547 23.4534 57.6046 23.4035C57.6546 23.3535 57.7182 23.3195 57.7875 23.3057C57.8568 23.292 57.9286 23.299 57.9938 23.3261C58.0591 23.3531 58.1149 23.3989 58.1541 23.4576C58.1933 23.5163 58.2143 23.5854 58.2143 23.656C58.2142 23.7507 58.1765 23.8415 58.1096 23.9085C58.0426 23.9754 57.9518 24.0131 57.8572 24.0132ZM1.42858 1.33923C1.28731 1.33923 1.14921 1.38113 1.03174 1.45961C0.914281 1.5381 0.822729 1.64966 0.768667 1.78017C0.714604 1.91069 0.700459 2.05431 0.72802 2.19287C0.75558 2.33143 0.823609 2.4587 0.923504 2.5586C1.0234 2.65849 1.15067 2.72652 1.28923 2.75408C1.42779 2.78164 1.57141 2.7675 1.70193 2.71343C1.83244 2.65937 1.944 2.56782 2.02249 2.45035C2.10097 2.33289 2.14287 2.19479 2.14287 2.05352C2.14265 1.86415 2.06733 1.68259 1.93342 1.54868C1.79951 1.41477 1.61795 1.33945 1.42858 1.33923ZM1.42858 2.41066C1.35794 2.41066 1.28889 2.38972 1.23016 2.35047C1.17143 2.31123 1.12565 2.25545 1.09862 2.19019C1.07159 2.12493 1.06452 2.05312 1.0783 1.98384C1.09208 1.91457 1.12609 1.85093 1.17604 1.80098C1.22599 1.75103 1.28963 1.71702 1.35891 1.70324C1.42818 1.68946 1.49999 1.69653 1.56525 1.72356C1.63051 1.75059 1.68629 1.79637 1.72553 1.8551C1.76478 1.91383 1.78572 1.98288 1.78572 2.05352C1.78563 2.14821 1.74797 2.239 1.68101 2.30595C1.61406 2.37291 1.52327 2.41057 1.42858 2.41066ZM46.7857 4.59389C46.6445 4.59389 46.5064 4.63579 46.3889 4.71427C46.2714 4.79276 46.1799 4.90432 46.1258 5.03483C46.0717 5.16535 46.0576 5.30897 46.0852 5.44753C46.1127 5.58609 46.1808 5.71336 46.2806 5.81326C46.3805 5.91315 46.5078 5.98118 46.6464 6.00874C46.7849 6.0363 46.9286 6.02216 47.0591 5.96809C47.1896 5.91403 47.3011 5.82248 47.3796 5.70502C47.4581 5.58755 47.5 5.44945 47.5 5.30818C47.4998 5.11881 47.4245 4.93725 47.2906 4.80334C47.1567 4.66944 46.9751 4.59411 46.7857 4.59389ZM46.7857 5.66532C46.7151 5.66532 46.646 5.64438 46.5873 5.60513C46.5286 5.56589 46.4828 5.51011 46.4558 5.44485C46.4287 5.37959 46.4217 5.30778 46.4354 5.2385C46.4492 5.16923 46.4832 5.10559 46.5332 5.05564C46.5831 5.00569 46.6468 4.97168 46.7161 4.9579C46.7853 4.94412 46.8571 4.95119 46.9224 4.97822C46.9877 5.00525 47.0434 5.05103 47.0827 5.10976C47.1219 5.16849 47.1429 5.23754 47.1429 5.30818C47.1428 5.40287 47.1051 5.49366 47.0382 5.56061C46.9712 5.62757 46.8804 5.66523 46.7857 5.66532ZM6.18026 10.8035C6.18026 10.6622 6.13837 10.5241 6.05988 10.4067C5.9814 10.2892 5.86984 10.1977 5.73932 10.1436C5.6088 10.0895 5.46518 10.0754 5.32663 10.103C5.18807 10.1305 5.0608 10.1985 4.9609 10.2984C4.86101 10.3983 4.79298 10.5256 4.76542 10.6642C4.73786 10.8027 4.752 10.9463 4.80606 11.0769C4.86013 11.2074 4.95168 11.3189 5.06914 11.3974C5.1866 11.4759 5.3247 11.5178 5.46598 11.5178C5.65535 11.5176 5.83691 11.4423 5.97081 11.3084C6.10472 11.1744 6.18005 10.9929 6.18026 10.8035ZM5.10883 10.8035C5.10883 10.7329 5.12978 10.6638 5.16902 10.6051C5.20827 10.5464 5.26405 10.5006 5.3293 10.4736C5.39456 10.4465 5.46637 10.4395 5.53565 10.4532C5.60493 10.467 5.66857 10.501 5.71851 10.551C5.76846 10.6009 5.80248 10.6646 5.81626 10.7338C5.83004 10.8031 5.82297 10.8749 5.79593 10.9402C5.7689 11.0055 5.72313 11.0612 5.66439 11.1005C5.60566 11.1397 5.53661 11.1607 5.46598 11.1607C5.37129 11.1606 5.2805 11.1229 5.21354 11.056C5.14659 10.989 5.10893 10.8982 5.10883 10.8035Z" fill="#2D4356"/>
<path d="M3.88856 25.4503L4.41963 24.7521L4.08427 24.5621L3.7432 25.3443H3.73213L3.3857 24.5675L3.04463 24.7632L3.56999 25.445V25.4561L2.7482 25.35V25.73L3.57534 25.6239V25.635L3.04463 26.3164L3.36284 26.5178L3.72641 25.73H3.73749L4.07284 26.5121L4.42499 26.3111L3.88856 25.6403V25.6293L4.73213 25.73V25.35L3.88856 25.4614V25.4503Z" fill="#0BCEB2"/>
<path d="M28.8925 2.10821L28.5868 2.50071L28.77 2.61679L28.9793 2.16286H28.9857L29.1789 2.61357L29.3814 2.4975L29.0729 2.11143V2.105L29.5586 2.16286V1.94429L29.0729 2.00857V2.00214L29.3786 1.6L29.1854 1.49036L28.9889 1.94071H28.9825L28.7832 1.49357L28.5868 1.60607L28.8893 1.99893V2.00536L28.4161 1.94429V2.16286L28.8925 2.10179V2.10821Z" fill="#0BCEB2"/>
<path d="M52.4014 15.3418V14.9693L51.5739 15.0786V15.0678L52.095 14.3828L51.7661 14.1964L51.4318 14.9636H51.4204L51.0811 14.2018L50.7461 14.3936L51.2618 15.0625V15.0732L50.4557 14.9693V15.3418L51.2671 15.2378V15.2489L50.7461 15.9171L51.0586 16.1146L51.4154 15.3418H51.4257L51.7546 16.1093L52.1004 15.9118L51.5739 15.2543V15.2432L52.4014 15.3418Z" fill="#0BCEB2"/>
<path d="M57.9825 4.16109L58.4318 3.57002L58.1482 3.4093L57.86 4.07109H57.8504L57.5571 3.41394L57.2686 3.57966L57.7132 4.15644V4.16573L57.0179 4.07609V4.39752L57.7179 4.30787V4.31716L57.2686 4.89394L57.5379 5.0643L57.8457 4.39752H57.855L58.1386 5.0593L58.4364 4.8893L57.9825 4.3218V4.31252L58.6964 4.39752V4.07609L57.9825 4.17037V4.16109Z" fill="#0BCEB2"/>
</g>
<defs>
<clipPath id="clip0_44_168">
<rect width="60" height="60" fill="white"/>
</clipPath>
</defs>
</svg>
